<svg xmlns="http://www.w3.org/2000/svg" viewBox="0 0 200 300" style="background-color:white; border: 1px solid #ccc;">
<style>text { font-family: sans-serif; fill: black; }</style>
<rect x="50" y="40" width="100" height="220" fill="#fafafa" stroke="black" stroke-width="1"/><path d="M 90 40 Q 100 55 110 40" stroke="black" fill="none"/><text x="100" y="25" font-size="16" text-anchor="middle" font-weight="bold" fill="black">NE555</text><rect x="30" y="79.0" width="20" height="10" fill="#ccc" stroke="black" stroke-width="1"/><text x="25" y="88.0" font-size="12" text-anchor="middle" font-weight="normal" fill="#555">1</text><text x="60" y="88.0" font-size="11" text-anchor="start" font-weight="bold" fill="black">GND</text><rect x="30" y="123.0" width="20" height="10" fill="#ccc" stroke="black" stroke-width="1"/><text x="25" y="132.0" font-size="12" text-anchor="middle" font-weight="normal" fill="#555">2</text><text x="60" y="132.0" font-size="11" text-anchor="start" font-weight="bold" fill="black">TRIG</text><rect x="30" y="167.0" width="20" height="10" fill="#ccc" stroke="black" stroke-width="1"/><text x="25" y="176.0" font-size="12" text-anchor="middle" font-weight="normal" fill="#555">3</text><text x="60" y="176.0" font-size="11" text-anchor="start" font-weight="bold" fill="black">OUT</text><rect x="30" y="211.0" width="20" height="10" fill="#ccc" stroke="black" stroke-width="1"/><text x="25" y="220.0" font-size="12" text-anchor="middle" font-weight="normal" fill="#555">4</text><text x="60" y="220.0" font-size="11" text-anchor="start" font-weight="bold" fill="black">RESET</text><rect x="150" y="211.0" width="20" height="10" fill="#ccc" stroke="black" stroke-width="1"/><text x="195" y="220.0" font-size="12" text-anchor="middle" font-weight="normal" fill="#555">5</text><text x="140" y="220.0" font-size="11" text-anchor="end" font-weight="bold" fill="black">CV</text><rect x="150" y="167.0" width="20" height="10" fill="#ccc" stroke="black" stroke-width="1"/><text x="195" y="176.0" font-size="12" text-anchor="middle" font-weight="normal" fill="#555">6</text><text x="140" y="176.0" font-size="11" text-anchor="end" font-weight="bold" fill="black">THRES</text><rect x="150" y="123.0" width="20" height="10" fill="#ccc" stroke="black" stroke-width="1"/><text x="195" y="132.0" font-size="12" text-anchor="middle" font-weight="normal" fill="#555">7</text><text x="140" y="132.0" font-size="11" text-anchor="end" font-weight="bold" fill="black">DISCH</text><rect x="150" y="79.0" width="20" height="10" fill="#ccc" stroke="black" stroke-width="1"/><text x="195" y="88.0" font-size="12" text-anchor="middle" font-weight="normal" fill="#555">8</text><text x="140" y="88.0" font-size="11" text-anchor="end" font-weight="bold" fill="black">VCC</text></svg>