<svg xmlns="http://www.w3.org/2000/svg" viewBox="0 0 250 360" style="background-color:white; border:1px solid #aaa;"><text x="125.0" y="25" text-anchor="middle" font-family="Arial" font-weight="bold" font-size="16">LM741 (OpAmp)</text><rect x="70" y="40" width="110" height="300" fill="#f0f0f0" stroke="#000" stroke-width="2"/><path d="M 115 40 Q 125 55 135 40" fill="none" stroke="#000"/><rect x="50" y="65" width="20" height="10" fill="#bbb" stroke="#000"/><text x="45" y="74" text-anchor="end" font-family="Arial" font-size="12">1</text><text x="75" y="74" text-anchor="start" font-family="Arial" font-size="10" font-weight="bold" fill="#000088">Offset</text><rect x="50" y="100" width="20" height="10" fill="#bbb" stroke="#000"/><text x="45" y="109" text-anchor="end" font-family="Arial" font-size="12">2</text><text x="75" y="109" text-anchor="start" font-family="Arial" font-size="10" font-weight="bold" fill="#000088">In (-)</text><rect x="50" y="135" width="20" height="10" fill="#bbb" stroke="#000"/><text x="45" y="144" text-anchor="end" font-family="Arial" font-size="12">3</text><text x="75" y="144" text-anchor="start" font-family="Arial" font-size="10" font-weight="bold" fill="#000088">In (+)</text><rect x="50" y="170" width="20" height="10" fill="#bbb" stroke="#000"/><text x="45" y="179" text-anchor="end" font-family="Arial" font-size="12">4</text><text x="75" y="179" text-anchor="start" font-family="Arial" font-size="10" font-weight="bold" fill="#000088">V-</text><rect x="180" y="65" width="20" height="10" fill="#bbb" stroke="#000"/><text x="205" y="74" text-anchor="start" font-family="Arial" font-size="12">8</text><text x="175" y="74" text-anchor="end" font-family="Arial" font-size="10" font-weight="bold" fill="#000088">NC</text><rect x="180" y="100" width="20" height="10" fill="#bbb" stroke="#000"/><text x="205" y="109" text-anchor="start" font-family="Arial" font-size="12">7</text><text x="175" y="109" text-anchor="end" font-family="Arial" font-size="10" font-weight="bold" fill="#000088">V+</text><rect x="180" y="135" width="20" height="10" fill="#bbb" stroke="#000"/><text x="205" y="144" text-anchor="start" font-family="Arial" font-size="12">6</text><text x="175" y="144" text-anchor="end" font-family="Arial" font-size="10" font-weight="bold" fill="#000088">Output</text><rect x="180" y="170" width="20" height="10" fill="#bbb" stroke="#000"/><text x="205" y="179" text-anchor="start" font-family="Arial" font-size="12">5</text><text x="175" y="179" text-anchor="end" font-family="Arial" font-size="10" font-weight="bold" fill="#000088">Offset</text></svg>