<svg xmlns="http://www.w3.org/2000/svg" viewBox="0 0 250 360" style="background-color:white; border:1px solid #aaa;"><text x="125.0" y="25" text-anchor="middle" font-family="Arial" font-weight="bold" font-size="16">SN74LS283 (Adder)</text><rect x="70" y="40" width="110" height="300" fill="#f0f0f0" stroke="#000" stroke-width="2"/><path d="M 115 40 Q 125 55 135 40" fill="none" stroke="#000"/><rect x="50" y="65" width="20" height="10" fill="#bbb" stroke="#000"/><text x="45" y="74" text-anchor="end" font-family="Arial" font-size="12">1</text><text x="75" y="74" text-anchor="start" font-family="Arial" font-size="10" font-weight="bold" fill="#000088">S2</text><rect x="50" y="100" width="20" height="10" fill="#bbb" stroke="#000"/><text x="45" y="109" text-anchor="end" font-family="Arial" font-size="12">2</text><text x="75" y="109" text-anchor="start" font-family="Arial" font-size="10" font-weight="bold" fill="#000088">B2</text><rect x="50" y="135" width="20" height="10" fill="#bbb" stroke="#000"/><text x="45" y="144" text-anchor="end" font-family="Arial" font-size="12">3</text><text x="75" y="144" text-anchor="start" font-family="Arial" font-size="10" font-weight="bold" fill="#000088">A2</text><rect x="50" y="170" width="20" height="10" fill="#bbb" stroke="#000"/><text x="45" y="179" text-anchor="end" font-family="Arial" font-size="12">4</text><text x="75" y="179" text-anchor="start" font-family="Arial" font-size="10" font-weight="bold" fill="#000088">S1</text><rect x="50" y="205" width="20" height="10" fill="#bbb" stroke="#000"/><text x="45" y="214" text-anchor="end" font-family="Arial" font-size="12">5</text><text x="75" y="214" text-anchor="start" font-family="Arial" font-size="10" font-weight="bold" fill="#000088">A1</text><rect x="50" y="240" width="20" height="10" fill="#bbb" stroke="#000"/><text x="45" y="249" text-anchor="end" font-family="Arial" font-size="12">6</text><text x="75" y="249" text-anchor="start" font-family="Arial" font-size="10" font-weight="bold" fill="#000088">B1</text><rect x="50" y="275" width="20" height="10" fill="#bbb" stroke="#000"/><text x="45" y="284" text-anchor="end" font-family="Arial" font-size="12">7</text><text x="75" y="284" text-anchor="start" font-family="Arial" font-size="10" font-weight="bold" fill="#000088">C0</text><rect x="50" y="310" width="20" height="10" fill="#bbb" stroke="#000"/><text x="45" y="319" text-anchor="end" font-family="Arial" font-size="12">8</text><text x="75" y="319" text-anchor="start" font-family="Arial" font-size="10" font-weight="bold" fill="#000088">GND</text><rect x="180" y="65" width="20" height="10" fill="#bbb" stroke="#000"/><text x="205" y="74" text-anchor="start" font-family="Arial" font-size="12">16</text><text x="175" y="74" text-anchor="end" font-family="Arial" font-size="10" font-weight="bold" fill="#000088">VCC</text><rect x="180" y="100" width="20" height="10" fill="#bbb" stroke="#000"/><text x="205" y="109" text-anchor="start" font-family="Arial" font-size="12">15</text><text x="175" y="109" text-anchor="end" font-family="Arial" font-size="10" font-weight="bold" fill="#000088">B3</text><rect x="180" y="135" width="20" height="10" fill="#bbb" stroke="#000"/><text x="205" y="144" text-anchor="start" font-family="Arial" font-size="12">14</text><text x="175" y="144" text-anchor="end" font-family="Arial" font-size="10" font-weight="bold" fill="#000088">A3</text><rect x="180" y="170" width="20" height="10" fill="#bbb" stroke="#000"/><text x="205" y="179" text-anchor="start" font-family="Arial" font-size="12">13</text><text x="175" y="179" text-anchor="end" font-family="Arial" font-size="10" font-weight="bold" fill="#000088">S3</text><rect x="180" y="205" width="20" height="10" fill="#bbb" stroke="#000"/><text x="205" y="214" text-anchor="start" font-family="Arial" font-size="12">12</text><text x="175" y="214" text-anchor="end" font-family="Arial" font-size="10" font-weight="bold" fill="#000088">A4</text><rect x="180" y="240" width="20" height="10" fill="#bbb" stroke="#000"/><text x="205" y="249" text-anchor="start" font-family="Arial" font-size="12">11</text><text x="175" y="249" text-anchor="end" font-family="Arial" font-size="10" font-weight="bold" fill="#000088">B4</text><rect x="180" y="275" width="20" height="10" fill="#bbb" stroke="#000"/><text x="205" y="284" text-anchor="start" font-family="Arial" font-size="12">10</text><text x="175" y="284" text-anchor="end" font-family="Arial" font-size="10" font-weight="bold" fill="#000088">S4</text><rect x="180" y="310" width="20" height="10" fill="#bbb" stroke="#000"/><text x="205" y="319" text-anchor="start" font-family="Arial" font-size="12">9</text><text x="175" y="319" text-anchor="end" font-family="Arial" font-size="10" font-weight="bold" fill="#000088">C4</text></svg>