<svg xmlns="http://www.w3.org/2000/svg" viewBox="0 0 200 300" style="background-color:white; border: 1px solid #ccc;">
<style>text { font-family: sans-serif; fill: black; }</style>
<rect x="50" y="40" width="100" height="220" fill="#fafafa" stroke="black" stroke-width="1"/><path d="M 90 40 Q 100 55 110 40" stroke="black" fill="none"/><text x="100" y="25" font-size="16" text-anchor="middle" font-weight="bold" fill="black">SN7490</text><rect x="30" y="62.5" width="20" height="10" fill="#ccc" stroke="black" stroke-width="1"/><text x="25" y="71.5" font-size="12" text-anchor="middle" font-weight="normal" fill="#555">1</text><text x="60" y="71.5" font-size="11" text-anchor="start" font-weight="bold" fill="black">CKB</text><rect x="30" y="90.0" width="20" height="10" fill="#ccc" stroke="black" stroke-width="1"/><text x="25" y="99.0" font-size="12" text-anchor="middle" font-weight="normal" fill="#555">2</text><text x="60" y="99.0" font-size="11" text-anchor="start" font-weight="bold" fill="black">R0(1)</text><rect x="30" y="117.5" width="20" height="10" fill="#ccc" stroke="black" stroke-width="1"/><text x="25" y="126.5" font-size="12" text-anchor="middle" font-weight="normal" fill="#555">3</text><text x="60" y="126.5" font-size="11" text-anchor="start" font-weight="bold" fill="black">R0(2)</text><rect x="30" y="145.0" width="20" height="10" fill="#ccc" stroke="black" stroke-width="1"/><text x="25" y="154.0" font-size="12" text-anchor="middle" font-weight="normal" fill="#555">4</text><text x="60" y="154.0" font-size="11" text-anchor="start" font-weight="bold" fill="black">NC</text><rect x="30" y="172.5" width="20" height="10" fill="#ccc" stroke="black" stroke-width="1"/><text x="25" y="181.5" font-size="12" text-anchor="middle" font-weight="normal" fill="#555">5</text><text x="60" y="181.5" font-size="11" text-anchor="start" font-weight="bold" fill="black">VCC</text><rect x="30" y="200.0" width="20" height="10" fill="#ccc" stroke="black" stroke-width="1"/><text x="25" y="209.0" font-size="12" text-anchor="middle" font-weight="normal" fill="#555">6</text><text x="60" y="209.0" font-size="11" text-anchor="start" font-weight="bold" fill="black">R9(1)</text><rect x="30" y="227.5" width="20" height="10" fill="#ccc" stroke="black" stroke-width="1"/><text x="25" y="236.5" font-size="12" text-anchor="middle" font-weight="normal" fill="#555">7</text><text x="60" y="236.5" font-size="11" text-anchor="start" font-weight="bold" fill="black">R9(2)</text><rect x="150" y="227.5" width="20" height="10" fill="#ccc" stroke="black" stroke-width="1"/><text x="195" y="236.5" font-size="12" text-anchor="middle" font-weight="normal" fill="#555">8</text><text x="140" y="236.5" font-size="11" text-anchor="end" font-weight="bold" fill="black">QC</text><rect x="150" y="200.0" width="20" height="10" fill="#ccc" stroke="black" stroke-width="1"/><text x="195" y="209.0" font-size="12" text-anchor="middle" font-weight="normal" fill="#555">9</text><text x="140" y="209.0" font-size="11" text-anchor="end" font-weight="bold" fill="black">QB</text><rect x="150" y="172.5" width="20" height="10" fill="#ccc" stroke="black" stroke-width="1"/><text x="195" y="181.5" font-size="12" text-anchor="middle" font-weight="normal" fill="#555">10</text><text x="140" y="181.5" font-size="11" text-anchor="end" font-weight="bold" fill="black">GND</text><rect x="150" y="145.0" width="20" height="10" fill="#ccc" stroke="black" stroke-width="1"/><text x="195" y="154.0" font-size="12" text-anchor="middle" font-weight="normal" fill="#555">11</text><text x="140" y="154.0" font-size="11" text-anchor="end" font-weight="bold" fill="black">QD</text><rect x="150" y="117.5" width="20" height="10" fill="#ccc" stroke="black" stroke-width="1"/><text x="195" y="126.5" font-size="12" text-anchor="middle" font-weight="normal" fill="#555">12</text><text x="140" y="126.5" font-size="11" text-anchor="end" font-weight="bold" fill="black">QA</text><rect x="150" y="90.0" width="20" height="10" fill="#ccc" stroke="black" stroke-width="1"/><text x="195" y="99.0" font-size="12" text-anchor="middle" font-weight="normal" fill="#555">13</text><text x="140" y="99.0" font-size="11" text-anchor="end" font-weight="bold" fill="black">NC</text><rect x="150" y="62.5" width="20" height="10" fill="#ccc" stroke="black" stroke-width="1"/><text x="195" y="71.5" font-size="12" text-anchor="middle" font-weight="normal" fill="#555">14</text><text x="140" y="71.5" font-size="11" text-anchor="end" font-weight="bold" fill="black">CKA</text></svg>