<svg xmlns="http://www.w3.org/2000/svg" viewBox="0 0 300 400" style="background-color:white;">
  <text x="150" y="30" font-family="Arial" font-weight="bold" font-size="20" text-anchor="middle">7-Segment (Common Anode)</text>
  <rect x="50" y="50" width="200" height="300" fill="#f8f8f8" stroke="black" stroke-width="2"/>
  
  <text x="50" y="380" font-family="Arial" font-size="12">1</text>
  <text x="250" y="380" font-family="Arial" font-size="12">5</text>
  <text x="50" y="45" font-family="Arial" font-size="12">10</text>
  <text x="250" y="45" font-family="Arial" font-size="12">6</text>
  
  <g transform="translate(110, 100) scale(1)">
    <polygon points="20,0 80,0 90,10 80,20 20,20 10,10" fill="#eee" stroke="#d00" stroke-width="3"/><text x="50" y="15" text-anchor="middle">a</text>
    <polygon points="90,10 100,20 100,80 90,90 80,80 80,20" fill="#eee" stroke="#d00" stroke-width="3"/><text x="90" y="50" text-anchor="middle">b</text>
    <polygon points="90,90 100,100 100,160 90,170 80,160 80,100" fill="#eee" stroke="#d00" stroke-width="3"/><text x="90" y="130" text-anchor="middle">c</text>
    <polygon points="20,160 80,160 90,170 80,180 20,180 10,170" fill="#eee" stroke="#d00" stroke-width="3"/><text x="50" y="175" text-anchor="middle">d</text>
    <polygon points="10,90 20,100 20,160 10,170 0,160 0,100" fill="#eee" stroke="#d00" stroke-width="3"/><text x="10" y="130" text-anchor="middle">e</text>
    <polygon points="10,10 20,20 20,80 10,90 0,80 0,20" fill="#eee" stroke="#d00" stroke-width="3"/><text x="10" y="50" text-anchor="middle">f</text>
    <polygon points="20,80 80,80 90,90 80,100 20,100 10,90" fill="#eee" stroke="#d00" stroke-width="3"/><text x="50" y="95" text-anchor="middle">g</text>
  </g>
</svg>