<svg xmlns="http://www.w3.org/2000/svg" viewBox="0 0 250 300" style="background-color:white; border: 1px solid #aaa;">
  <text x="125" y="25" font-family="Arial" font-weight="bold" font-size="16" text-anchor="middle">7-Segment (Common A)</text>
  
  <rect x="50" y="50" width="150" height="200" fill="#f0f0f0" stroke="black" stroke-width="2"/>
  
  <!-- Pins Top -->
  <g transform="translate(0, 50)">
      <text x="40" y="-5" font-size="10" fill="#000088">10(g)</text> <rect x="35" y="0" width="10" height="10" fill="#bbb"/>
      <text x="75" y="-5" font-size="10" fill="#000088">9(f)</text> <rect x="70" y="0" width="10" height="10" fill="#bbb"/>
      <text x="125" y="-5" font-size="10" font-weight="bold" fill="red">8(VCC)</text> <rect x="120" y="0" width="10" height="10" fill="#bbb"/>
      <text x="175" y="-5" font-size="10" fill="#000088">7(a)</text> <rect x="170" y="0" width="10" height="10" fill="#bbb"/>
      <text x="210" y="-5" font-size="10" fill="#000088">6(b)</text> <rect x="205" y="0" width="10" height="10" fill="#bbb"/>
  </g>
  
  <!-- Pins Bottom -->
  <g transform="translate(0, 240)">
      <text x="40" y="20" font-size="10" fill="#000088">1(e)</text> <rect x="35" y="0" width="10" height="10" fill="#bbb"/>
      <text x="75" y="20" font-size="10" fill="#000088">2(d)</text> <rect x="70" y="0" width="10" height="10" fill="#bbb"/>
      <text x="125" y="20" font-size="10" font-weight="bold" fill="red">3(VCC)</text> <rect x="120" y="0" width="10" height="10" fill="#bbb"/>
      <text x="175" y="20" font-size="10" fill="#000088">4(c)</text> <rect x="170" y="0" width="10" height="10" fill="#bbb"/>
      <text x="210" y="20" font-size="10" fill="#000088">5(dp)</text> <rect x="205" y="0" width="10" height="10" fill="#bbb"/>
  </g>
  
  <!-- Segments -->
  <g transform="translate(85, 90) scale(0.8)">
    <polygon points="20,0 80,0 90,10 80,20 20,20 10,10" fill="#fee" stroke="red"/><text x="50" y="15" text-anchor="middle" font-size="14">a</text>
    <polygon points="90,10 100,20 100,80 90,90 80,80 80,20" fill="#fee" stroke="red"/><text x="90" y="50" text-anchor="middle" font-size="14">b</text>
    <polygon points="90,90 100,100 100,160 90,170 80,160 80,100" fill="#fee" stroke="red"/><text x="90" y="130" text-anchor="middle" font-size="14">c</text>
    <polygon points="20,160 80,160 90,170 80,180 20,180 10,170" fill="#fee" stroke="red"/><text x="50" y="175" text-anchor="middle" font-size="14">d</text>
    <polygon points="10,90 20,100 20,160 10,170 0,160 0,100" fill="#fee" stroke="red"/><text x="10" y="130" text-anchor="middle" font-size="14">e</text>
    <polygon points="10,10 20,20 20,80 10,90 0,80 0,20" fill="#fee" stroke="red"/><text x="10" y="50" text-anchor="middle" font-size="14">f</text>
    <polygon points="20,80 80,80 90,90 80,100 20,100 10,90" fill="#fee" stroke="red"/><text x="50" y="95" text-anchor="middle" font-size="14">g</text>
  </g>
</svg>